<svg width="100" height="100" viewBox="0 0 100 100" fill="none" xmlns="http://www.w3.org/2000/svg">
<g clip-path="url(#clip0_500_2)">
<path d="M87.5 29.1667L83.3333 83.3333L29.1666 87.5L87.5 29.1667Z" fill="#9B1010"/>
<path d="M58.3334 58.3333L83.3334 83.3333L87.5 29.1667L58.3334 58.3333Z" fill="#B71C1C"/>
<path d="M32.8169 32.8176C28.4409 37.1938 24.5521 41.9717 21.3727 46.8783C18.1932 51.7849 15.7854 56.7242 14.2866 61.4142C12.7878 66.1042 12.2275 70.453 12.6376 74.2124C13.0477 77.9717 14.4201 81.068 16.6766 83.3245C18.9331 85.5809 22.0295 86.9533 25.7889 87.3632C29.5483 87.7732 33.8971 87.2127 38.587 85.7137C43.277 84.2148 48.2162 81.8068 53.1227 78.6272C58.0292 75.4476 62.8069 71.5586 67.1829 67.1824C71.559 62.8062 75.4478 58.0284 78.6272 53.1217C81.8067 48.2151 84.2145 43.2758 85.7133 38.5858C87.2121 33.8958 87.7724 29.547 87.3623 25.7876C86.9522 22.0283 85.5797 18.932 83.3232 16.6755C81.0667 14.4191 77.9704 13.0467 74.211 12.6368C70.4516 12.2268 66.1028 12.7873 61.4129 14.2863C56.7229 15.7852 51.7837 18.1932 46.8772 21.3728C41.9707 24.5524 37.193 28.4414 32.8169 32.8176Z" fill="#C62828"/>
<path d="M20.8333 35.4167L35.4167 20.8333L52.0833 12.5L64.5833 20.8333L58.3333 39.5833L39.5833 56.25L20.8333 62.5L12.5 50L20.8333 35.4167Z" fill="#E53935"/>
<path d="M64.5833 20.8333L52.0833 12.5H75L64.5833 20.8333ZM87.5 31.25L64.5833 20.8333L58.3333 39.5833L87.5 31.25ZM39.5833 56.25L67.1562 67.1562L58.3333 39.5833L39.5833 56.25ZM20.8333 62.5L29.1667 87.5L39.5833 56.25L20.8333 62.5ZM12.5 50V72.9167L20.8333 62.5L12.5 50Z" fill="#FF5252"/>
</g>
<defs>
<clipPath id="clip0_500_2">
<rect width="100" height="100" fill="white"/>
</clipPath>
</defs>
</svg>
